# xmcd CD database file
#
# Track frame offsets:
#	150
#	17756
#	32399
#	45381
#	66842
#	76655
#	96290
#	116545
#	131929
#	148567
#	159189
#	169520
#	191723
#	211725
#	230909
#
# Disc length: 4429 seconds
#
# Revision: 0
# Processed by: cddbd v1.4PL0 Copyright (c) Steve Scherf et al.
# Submitted via: CDex 1.50beta10
#
DISCID=bf114b0f
DTITLE=Williams Wetsox - Da Blues des is a Deife
DYEAR=1998
DGENRE=Blues
TTITLE0=S'zwoate Moi
TTITLE1=Wer hod d'Macht
TTITLE2=Da hoibe simme Zug
TTITLE3=Es is wohr
TTITLE4=Samstag Nacht
TTITLE5=Jazzschui
TTITLE6=Da Willi (vo Geitau)
TTITLE7=Da boarische Bluesmo
TTITLE8=Br‰uwastl spezial
TTITLE9=Leid laﬂt's eich Zeit
TTITLE10=Katz und Maus
TTITLE11=So alloa
TTITLE12=Der Bach
TTITLE13=Da Faschingsdienstagmorg'n
TTITLE14=Williams Wtsocks im Biergart'n (Video)
EXTD=YEAR: 1998
EXTT0=
EXTT1=
EXTT2=
EXTT3=
EXTT4=
EXTT5=
EXTT6=
EXTT7=
EXTT8=
EXTT9=
EXTT10=
EXTT11=
EXTT12=
EXTT13=
EXTT14=
PLAYORDER=
